<?xml version="1.0" encoding="utf-8" standalone="no"?><!-- Generator: Adobe Illustrator 16.0.0, SVG Export Plug-In . SVG Version: 6.00 Build 0)  --><svg xmlns="http://www.w3.org/2000/svg" xmlns:xlink="http://www.w3.org/1999/xlink" enable-background="new 0 0 500.001 499.944" fill="#000000" height="499.944px" id="Layer_1" version="1.1" viewBox="0 0 500.001 499.944" width="500.001px" x="0px" xml:space="preserve" y="0px">
<g id="P">
	<path d="M440.102,79.27c-9.778-16.932-27.509-26.405-45.749-26.418l0.003-0.003   c-18.24-0.016-35.974-9.488-45.749-26.418C334.021,1.164,301.715-7.491,276.448,7.098l-0.004,0.003V7.085   c-15.693,9.041-35.609,9.757-52.466,0.198C216.122,2.655,206.973,0,197.201,0c-19.551,0-36.619,10.623-45.755,26.412v-0.003   c-9.133,15.786-26.205,26.409-45.753,26.409c-29.175,0-52.824,23.649-52.824,52.824v0.006l-0.016-0.006   c-0.016,18.101-9.345,35.698-26.03,45.521c-7.945,4.486-14.83,11.086-19.722,19.559c-9.776,16.934-9.111,37.025-0.003,52.83H7.095   c9.101,15.802,9.766,35.895-0.01,52.827c-14.585,25.264-5.931,57.57,19.336,72.159l0.003,0.003l-0.01,0.007   c15.789,9.129,26.407,26.201,26.407,45.752c0,29.175,23.649,52.824,52.823,52.824c19.552,0,36.617,10.621,45.756,26.41l0,0   c9.133,15.782,26.204,26.41,45.753,26.41c9.775,0,18.921-2.66,26.777-7.284c16.853-9.557,36.774-8.841,52.466,0.203v-0.019   l0.003,0.006c25.267,14.586,57.573,5.928,72.163-19.336c9.775-16.929,27.506-26.403,45.746-26.416l-0.004-0.007   c18.24-0.013,35.974-9.487,45.746-26.416c4.813-8.335,7.097-17.439,7.087-26.417l0.007,0.006   c0.016-17.594,8.832-34.719,24.652-44.682c8.528-4.484,15.929-11.355,21.1-20.312c9.779-16.938,9.114-37.031,0.007-52.833h0.003   c-9.104-15.802-9.77-35.895,0.007-52.828c14.589-25.267,5.931-57.57-19.336-72.159l-0.004-0.004l0.01-0.003   c-15.662-9.062-26.236-25.935-26.403-45.291C447.272,97.018,444.995,87.748,440.102,79.27" fill="#ffbd59"/>
</g>
</svg>